<svg width="21" height="16" fill="none" xmlns="http://www.w3.org/2000/svg">
  <path d="M15.366 8.286c.517.012 1.038-.023 1.553.019.522.1.648.914.184 1.181-.316.176-.692.066-1.035.097h-.702V8.286Zm1.852-1.467c.116.419-.276.794-.667.736h-1.185c.008-.394-.016-.822.012-1.196.475.014.954-.028 1.426.022a.574.574 0 0 1 .415.438ZM20.072.617c.022.798.003 1.64.01 2.454-.002 3.314.002 6.627-.003 9.94-.021 1.242-1.089 2.321-2.286 2.346-1.197.005-2.395 0-3.593.002V10.35c1.305-.007 2.61.014 3.916-.01.605-.04 1.268-.451 1.296-1.137.071-.69-.56-1.167-1.158-1.242-.23-.006-.224-.07 0-.097.57-.127 1.02-.736.851-1.346-.143-.642-.831-.89-1.404-.889-1.166-.008-2.334 0-3.5-.003.007-.935-.017-1.872.012-2.806C14.305 1.6 15.4.595 16.58.617h3.492Z" fill="url(#a)"/>
  <path d="M1.012 2.946c.03-1.24 1.102-2.31 2.297-2.328 1.193-.003 2.387 0 3.58-.001-.003 4.148.006 8.296-.005 12.444-.046 1.225-1.107 2.275-2.289 2.296-1.195.005-2.391.001-3.587.002v-5.178c1.162.283 2.38.403 3.564.216.708-.118 1.483-.476 1.723-1.233.177-.648.077-1.33.103-1.994V5.626h-2.05c-.01 1.02.019 2.044-.015 3.064-.055.626-.657 1.025-1.231 1.003-.711.008-2.121-.53-2.121-.53-.004-1.914.02-4.31.03-6.216Z" fill="url(#b)"/>
  <path d="M7.653 6.249c-.107.023-.021-.38-.049-.532.008-.965-.015-1.932.013-2.896C7.709 1.596 8.812.588 9.997.617h3.488c-.003 4.148.006 8.297-.005 12.444-.046 1.225-1.107 2.275-2.289 2.297-1.195.004-2.391 0-3.587.002V9.686c.817.69 1.927.798 2.944.8.767 0 1.53-.122 2.274-.304v-1.04c-.84.431-1.826.705-2.756.458-.65-.167-1.12-.813-1.11-1.504-.075-.718.333-1.475 1.018-1.689.85-.274 1.776-.064 2.572.292.171.092.344.206.276-.088v-.816c-1.332-.327-2.75-.447-4.089-.092a2.965 2.965 0 0 0-1.08.546Z" fill="url(#c)"/>
  <defs>
    <linearGradient id="a" x1="14.16" y1="7.673" x2="20.044" y2="7.673" gradientUnits="userSpaceOnUse">
      <stop stop-color="#007B40"/>
      <stop offset="1" stop-color="#55B330"/>
    </linearGradient>
    <linearGradient id="b" x1=".883" y1="8.129" x2="6.792" y2="8.129" gradientUnits="userSpaceOnUse">
      <stop stop-color="#1D2970"/>
      <stop offset="1" stop-color="#006DBA"/>
    </linearGradient>
    <linearGradient id="c" x1="7.596" y1="7.816" x2="13.484" y2="7.816" gradientUnits="userSpaceOnUse">
      <stop stop-color="#6E2B2F"/>
      <stop offset="1" stop-color="#E30138"/>
    </linearGradient>
  </defs>
</svg>
