<svg width="24" height="16" fill="none" xmlns="http://www.w3.org/2000/svg">
  <path d="M4.588.617h5.727c.8 0 1.297.672 1.11 1.498l-2.666 11.8c-.188.823-.989 1.496-1.789 1.496H1.243c-.798 0-1.297-.673-1.11-1.496L2.8 2.114C2.987 1.29 3.787.617 4.588.617Z" fill="#E21836"/>
  <path d="M9.838.616h6.587c.8 0 .44.672.251 1.499L14.01 13.914c-.187.824-.129 1.496-.93 1.496H6.493c-.8 0-1.296-.672-1.108-1.496l2.666-11.8c.19-.826.988-1.498 1.787-1.498Z" fill="#00447C"/>
  <path d="M16.164.616h5.728c.8 0 1.298.672 1.11 1.499l-2.667 11.799c-.188.824-.989 1.496-1.79 1.496h-5.724c-.801 0-1.298-.672-1.11-1.496l2.666-11.8c.186-.826.986-1.498 1.787-1.498Z" fill="#007B84"/>
  <path d="M6.083 4.397c-.589.007-.763 0-.818-.013l-.42 1.996c-.086.382-.148.654-.36.83a.629.629 0 0 1-.422.152c-.261 0-.414-.134-.44-.387l-.004-.087.08-.515s.417-1.722.491-1.95a.169.169 0 0 0 .006-.026c-.812.008-.956 0-.965-.013a3.318 3.318 0 0 0-.026.125L2.779 6.45l-.037.165-.07.538c0 .16.03.29.09.4.195.35.748.402 1.061.402.404 0 .782-.088 1.038-.25.444-.27.56-.692.664-1.068l.048-.193s.43-1.788.503-2.02c.002-.014.004-.02.007-.027ZM7.545 5.84c-.103 0-.293.026-.463.112-.061.033-.12.07-.181.108l.055-.207-.03-.035c-.36.076-.441.086-.774.134l-.028.02c-.04.33-.073.578-.217 1.228-.054.239-.111.48-.168.72l.015.03c.342-.019.445-.019.742-.014l.024-.026c.038-.2.043-.246.126-.65.04-.19.121-.61.162-.76a.541.541 0 0 1 .217-.07c.166 0 .146.15.14.21-.008.1-.068.426-.13.706l-.042.181c-.029.134-.06.264-.09.396l.013.027a7.74 7.74 0 0 1 .726-.014l.034-.026c.052-.311.067-.394.16-.847l.046-.208c.09-.407.135-.613.067-.781-.072-.188-.245-.234-.404-.234Zm1.634.426c-.18.036-.293.06-.407.074-.112.019-.222.036-.394.06l-.014.013-.013.01c-.018.133-.03.248-.054.383-.02.14-.052.298-.102.525-.04.174-.06.235-.082.296-.022.062-.046.121-.09.293l.01.015.01.015c.16-.008.266-.014.375-.015.108-.004.22 0 .395.001l.015-.012.016-.014c.025-.155.03-.197.045-.272.015-.08.041-.193.105-.492.03-.14.065-.28.096-.423l.1-.424-.005-.017-.006-.016Zm.003-.574c-.162-.1-.447-.068-.64.069-.19.134-.212.324-.05.424.16.096.446.067.636-.07s.215-.325.054-.423Zm.983 2.289c.329 0 .666-.093.92-.37.195-.225.284-.56.315-.697.101-.457.023-.67-.076-.8-.15-.197-.415-.26-.69-.26-.165 0-.559.016-.866.308-.221.211-.323.497-.385.771-.062.28-.133.783.315.97.139.061.338.078.467.078Zm-.025-1.027c.075-.346.165-.636.393-.636.18 0 .192.216.113.563-.015.077-.08.363-.168.485-.062.09-.135.144-.216.144-.024 0-.167 0-.169-.218 0-.108.02-.218.046-.338Zm2.082.982.026-.026c.036-.2.042-.246.123-.649.04-.191.124-.61.163-.76.074-.036.146-.07.218-.07.165 0 .145.149.139.208a6.97 6.97 0 0 1-.13.707l-.04.181c-.03.134-.062.264-.09.397l.012.026c.337-.019.436-.019.725-.014l.035-.026c.05-.311.064-.394.16-.847l.044-.208c.09-.407.137-.613.07-.781-.075-.188-.248-.234-.405-.234-.104 0-.294.026-.463.112a3.05 3.05 0 0 0-.18.108l.051-.207-.027-.035c-.361.076-.443.086-.776.134l-.026.02c-.04.33-.073.578-.216 1.228l-.168.72.015.03c.342-.019.444-.019.74-.014Zm2.48.014.149-.74s.107-.464.114-.48c0 0 .034-.05.067-.068h.05c.469 0 .998 0 1.413-.315.283-.216.476-.534.562-.922a1.43 1.43 0 0 0 .039-.32.69.69 0 0 0-.112-.41c-.212-.305-.634-.311-1.12-.313l-.24.002c-.623.008-.873.006-.975-.007l-.025.13-.223 1.067-.56 2.372c.545-.007.768-.007.861.004Zm.414-1.893.236-1.06.008-.054.003-.041.095.01.5.044c.193.077.273.276.217.534a.775.775 0 0 1-.39.532c-.158.082-.351.088-.55.088h-.129l.01-.053Zm1.477.917c-.063.275-.135.778.311.957.143.063.27.081.4.075a.651.651 0 0 0 .382-.18l-.032.125.02.027c.321-.014.42-.014.769-.011l.031-.025c.051-.308.1-.607.231-1.196l.195-.842-.01-.031c-.36.068-.456.083-.802.133l-.026.022-.01.084A.498.498 0 0 0 17.8 5.9c-.154-.063-.515.018-.825.309-.218.208-.323.493-.382.766Zm.754.017c.077-.34.166-.627.395-.627.144 0 .22.138.205.373l-.041.19-.072.3a.737.737 0 0 1-.085.177.39.39 0 0 1-.28.14c-.022 0-.164 0-.169-.216 0-.106.02-.217.047-.337Zm3.941-1.121-.027-.033a8.21 8.21 0 0 1-.747.132l-.024.025-.004.015v-.005c-.244.578-.237.453-.435.908l-.002-.055-.05-.987-.03-.033c-.373.075-.382.086-.726.132l-.027.025c-.004.011-.004.024-.006.038l.002.005c.043.227.033.176.076.534.02.175.047.352.067.525.034.29.053.432.095.875-.233.395-.288.544-.511.891l.001.004-.157.256c-.018.027-.035.046-.058.054a.231.231 0 0 1-.103.015h-.087l-.13.444.445.008c.261 0 .426-.127.514-.296l.28-.494h-.005l.03-.035c.188-.417 1.62-2.948 1.62-2.948Zm-4.695 5.839h-.19l.7-2.381h.231l.074-.246.007.273c-.009.169.12.318.458.293h.391l.135-.458h-.148c-.084 0-.123-.022-.118-.07l-.008-.277h-.724v.002c-.234.005-.933.023-1.075.062-.17.045-.351.179-.351.179l.07-.246h-.677l-.14.488-.709 2.417h-.137l-.135.456h1.35l-.046.151h.665l.044-.152h.186l.147-.491Zm-.554-1.898c-.108.031-.31.125-.31.125l.18-.608h.537l-.13.443s-.166.01-.277.04Zm.01.87s-.169.022-.28.048c-.11.034-.315.142-.315.142l.185-.634h.541l-.13.444Zm-.301 1.034h-.54l.156-.535h.539l-.155.534Zm1.3-1.478h.778l-.112.374h-.788l-.119.408h.69l-.522.758a.217.217 0 0 1-.106.09.303.303 0 0 1-.14.042h-.191l-.132.447h.5c.26 0 .415-.122.528-.282l.358-.505.077.513a.24.24 0 0 0 .129.174c.05.026.102.07.175.077.079.004.135.006.173.006h.246l.148-.5h-.098c-.055 0-.151-.01-.167-.027-.017-.022-.017-.056-.026-.107l-.078-.514h-.32l.141-.172h.787l.121-.408h-.729l.114-.374h.726l.135-.46H17.18l-.132.46Zm-6.572 1.581.181-.622h.747l.136-.463h-.747l.114-.384h.73l.135-.448H9.945l-.132.448h.415l-.11.383H9.7l-.138.472h.415l-.242.823c-.033.11.015.151.046.202a.2.2 0 0 0 .133.1.783.783 0 0 0 .192.027h.841l.15-.513-.373.053c-.072 0-.271-.009-.25-.078Zm.085-2.98-.19.352a.407.407 0 0 1-.109.147c-.029.018-.086.026-.169.026h-.099l-.132.45h.328c.158 0 .279-.059.337-.089.062-.034.078-.014.126-.062l.11-.099h1.024l.136-.47h-.749l.13-.256h-.743Zm1.511 2.99c-.017-.026-.005-.072.022-.167l.28-.954h.995c.145-.003.25-.004.318-.01a.636.636 0 0 0 .24-.082.453.453 0 0 0 .173-.166c.043-.06.113-.195.172-.401l.352-1.208-1.033.006s-.318.049-.458.102c-.141.06-.343.226-.343.226l.093-.331h-.638l-.893 3.053a1.933 1.933 0 0 0-.058.256c-.002.056.068.11.113.153.054.041.133.034.209.041.08.006.193.01.35.01h.49l.15-.524-.439.043a.114.114 0 0 1-.095-.048Zm.482-1.766H13.6l-.067.215c-.01.005-.031-.01-.138.002h-.905l.064-.217Zm.21-.72h1.054l-.076.259s-.497-.005-.576.01c-.35.062-.555.255-.555.255l.153-.524Zm.793 1.654a.115.115 0 0 1-.042.066c-.021.014-.055.019-.107.019h-.149l.01-.261h-.62l-.025 1.278c-.002.092.007.145.073.188.065.053.267.06.538.06h.389l.14-.478-.338.019-.113.007c-.015-.007-.03-.013-.046-.03-.014-.015-.038-.006-.034-.098l.002-.328.355-.015a.452.452 0 0 0 .343-.125c.066-.059.088-.126.113-.217l.06-.29h-.487l-.062.205Z" fill="#FEFEFE"/>
</svg>
