<svg width="27" height="20" fill="none" xmlns="http://www.w3.org/2000/svg">
  <path d="M16.972 14.233h-6.99V1.739h6.99v12.494Z" fill="#6C6BBD"/>
  <path d="M10.425 7.986a7.917 7.917 0 0 1 3.052-6.247A7.982 7.982 0 0 0 8.539.04C4.127.04.551 3.597.551 7.986c0 4.388 3.576 7.946 7.988 7.946a7.983 7.983 0 0 0 4.938-1.7 7.917 7.917 0 0 1-3.052-6.246Z" fill="#EB001B"/>
  <path d="M26.403 7.986c0 4.388-3.576 7.946-7.989 7.946a7.985 7.985 0 0 1-4.937-1.7 7.916 7.916 0 0 0 3.051-6.246 7.916 7.916 0 0 0-3.051-6.247A7.985 7.985 0 0 1 18.414.04c4.412 0 7.989 3.557 7.989 7.946Z" fill="#0099DF"/>
  <path d="M19.337 17.763a.99.99 0 0 1 .329.057l-.142.433a.751.751 0 0 0-.289-.053c-.302 0-.453.194-.453.542v1.183h-.461v-2.109h.457v.256a.627.627 0 0 1 .56-.31ZM17.632 18.235h-.755v.953c0 .212.075.354.306.354.12 0 .271-.04.408-.12l.133.393a1.086 1.086 0 0 1-.576.163c-.546 0-.736-.291-.736-.781v-.962h-.431v-.42h.43v-.64h.466v.64h.755v.42Z" fill="#231F20"/>
  <path fill-rule="evenodd" clip-rule="evenodd" d="M12.297 17.763c.595 0 1.003.45 1.008 1.108 0 .06-.005.118-.01.175v.001h-1.574c.066.38.337.516.634.516.213 0 .44-.079.617-.22l.226.34c-.257.216-.55.295-.87.295-.634 0-1.087-.437-1.087-1.107 0-.658.435-1.108 1.056-1.108Zm-.008.41c-.33 0-.515.208-.564.512h1.1c-.048-.326-.24-.512-.536-.512Z" fill="#231F20"/>
  <path d="M15.332 18.354a1.366 1.366 0 0 0-.66-.181c-.253 0-.404.093-.404.248 0 .14.16.18.359.207l.217.03c.462.067.742.261.742.632 0 .402-.356.689-.968.689-.346 0-.666-.089-.918-.274l.217-.358c.155.12.386.22.706.22.315 0 .484-.092.484-.255 0-.119-.12-.186-.373-.22l-.218-.031c-.475-.067-.732-.279-.732-.623 0-.419.346-.675.883-.675.337 0 .644.075.865.22l-.2.371Z" fill="#231F20"/>
  <path fill-rule="evenodd" clip-rule="evenodd" d="M21.481 17.848a1.2 1.2 0 0 0-.457-.085 1.2 1.2 0 0 0-.457.085 1.085 1.085 0 0 0-.688 1.03 1.087 1.087 0 0 0 .688 1.03c.14.056.293.085.457.085.165 0 .317-.028.457-.085a1.074 1.074 0 0 0 .604-.588c.058-.135.087-.283.087-.442 0-.16-.029-.307-.087-.443a1.072 1.072 0 0 0-.604-.587Zm-.722.4a.703.703 0 0 1 .265-.05c.095 0 .183.018.265.05a.634.634 0 0 1 .354.354c.034.084.05.176.05.276 0 .1-.016.192-.05.275a.64.64 0 0 1-.619.404.694.694 0 0 1-.265-.05.635.635 0 0 1-.351-.354.72.72 0 0 1-.05-.275c0-.1.016-.192.05-.276a.634.634 0 0 1 .351-.354ZM10.746 17.816v2.11h-.461v-.257c-.147.19-.369.31-.67.31-.595 0-1.061-.464-1.061-1.108 0-.645.466-1.108 1.06-1.108.302 0 .524.12.67.31v-.257h.462Zm-1.074.38c-.4 0-.644.304-.644.675 0 .37.245.675.644.675.381 0 .639-.291.639-.675 0-.384-.258-.676-.64-.676Z" fill="#231F20"/>
  <path d="M8.146 19.925v-1.323c0-.5-.32-.835-.834-.84-.271-.004-.551.08-.746.376a.78.78 0 0 0-.702-.375.703.703 0 0 0-.62.313v-.26h-.462v2.11h.466v-1.17c0-.366.204-.56.519-.56.306 0 .462.198.462.555v1.174h.465v-1.169c0-.366.214-.56.52-.56.315 0 .466.198.466.555v1.174h.466Z" fill="#231F20"/>
</svg>
