<svg width="13" height="15" fill="none" xmlns="http://www.w3.org/2000/svg">
  <path fill-rule="evenodd" clip-rule="evenodd" d="M2.427 2.896A2.302 2.302 0 0 1 6.5 1.425a2.302 2.302 0 0 1 3.585 2.888h.665c.978 0 1.77.792 1.77 1.77v.886a.531.531 0 0 1-.53.531H7.244a.213.213 0 0 1-.213-.213V4.836c-.2-.128-.38-.287-.531-.47-.152.183-.33.342-.531.47v2.451a.213.213 0 0 1-.213.213H1.01a.531.531 0 0 1-.53-.531v-.886c0-.978.792-1.77 1.77-1.77h.664a2.292 2.292 0 0 1-.487-1.417Zm3.542 0a1.24 1.24 0 1 0-2.48 0 1.24 1.24 0 0 0 2.48 0Zm1.062 0a1.24 1.24 0 1 0 2.48 0 1.24 1.24 0 0 0-2.48 0Z" fill="#0079F0"/>
  <path fill-rule="evenodd" clip-rule="evenodd" d="M2.427 2.896A2.302 2.302 0 0 1 6.5 1.425a2.302 2.302 0 0 1 3.585 2.888h.665c.978 0 1.77.792 1.77 1.77v.886a.531.531 0 0 1-.53.531H7.244a.213.213 0 0 1-.213-.213V4.836c-.2-.128-.38-.287-.531-.47-.152.183-.33.342-.531.47v2.451a.213.213 0 0 1-.213.213H1.01a.531.531 0 0 1-.53-.531v-.886c0-.978.792-1.77 1.77-1.77h.664a2.292 2.292 0 0 1-.487-1.417Zm3.542 0a1.24 1.24 0 1 0-2.48 0 1.24 1.24 0 0 0 2.48 0Zm1.062 0a1.24 1.24 0 1 0 2.48 0 1.24 1.24 0 0 0-2.48 0Z" fill="url(#a)"/>
  <path d="M5.969 8.669a.213.213 0 0 0-.213-.213H2.001a.59.59 0 0 0-.581.49 8.212 8.212 0 0 0 0 2.774l.159.927a1.422 1.422 0 0 0 1.243 1.173l.755.085c.723.08 1.449.131 2.175.152a.211.211 0 0 0 .217-.212V8.67Z" fill="#0079F0"/>
  <path d="M5.969 8.669a.213.213 0 0 0-.213-.213H2.001a.59.59 0 0 0-.581.49 8.212 8.212 0 0 0 0 2.774l.159.927a1.422 1.422 0 0 0 1.243 1.173l.755.085c.723.08 1.449.131 2.175.152a.211.211 0 0 0 .217-.212V8.67Z" fill="url(#b)"/>
  <path d="M7.248 14.057a.211.211 0 0 1-.217-.212V8.67c0-.118.095-.213.213-.213h3.755a.59.59 0 0 1 .581.49 8.21 8.21 0 0 1 0 2.774l-.159.927a1.422 1.422 0 0 1-1.243 1.173l-.755.085c-.723.08-1.449.131-2.175.152Z" fill="#0079F0"/>
  <path d="M7.248 14.057a.211.211 0 0 1-.217-.212V8.67c0-.118.095-.213.213-.213h3.755a.59.59 0 0 1 .581.49 8.21 8.21 0 0 1 0 2.774l-.159.927a1.422 1.422 0 0 1-1.243 1.173l-.755.085c-.723.08-1.449.131-2.175.152Z" fill="url(#c)"/>
  <defs>
    <linearGradient id="a" x1="6.5" y1=".594" x2="6.5" y2="14.057" gradientUnits="userSpaceOnUse">
      <stop stop-color="#F90"/>
      <stop offset="1" stop-color="#FF630C"/>
    </linearGradient>
    <linearGradient id="b" x1="6.5" y1=".594" x2="6.5" y2="14.057" gradientUnits="userSpaceOnUse">
      <stop stop-color="#F90"/>
      <stop offset="1" stop-color="#FF630C"/>
    </linearGradient>
    <linearGradient id="c" x1="6.5" y1=".594" x2="6.5" y2="14.057" gradientUnits="userSpaceOnUse">
      <stop stop-color="#F90"/>
      <stop offset="1" stop-color="#FF630C"/>
    </linearGradient>
  </defs>
</svg>
