<svg width="148" height="125" fill="none" xmlns="http://www.w3.org/2000/svg">
  <rect width="148" height="125" rx="15" fill="url(#a)"/>
  <g clip-path="url(#b)">
    <path d="M91.132 56.582 85.225 80.38h9.584l6.144-24.796-9.821.997ZM122.727 55.537c-2.856-.277-7.313.595-9.516 2.26-.05-.911-.219-1.627-.415-2.36l-8.483 1.03c.337 2.348.005 4.954-.829 8.46l-3.8 15.455h9.584l3.923-15.77c.96-1.367 2.487-2.282 3.777-2.282 1.597 0 1.987 1.16 1.491 3.062l-3.682 14.99h9.584l4.113-16.28c.98-4.414-.465-8.05-5.747-8.565Z" fill="#fff"/>
    <path d="M102.525 48.867c0-2.553-2.25-4.633-5.126-4.633-2.93 0-5.337 2.08-5.337 4.633 0 2.552 2.355 4.634 5.18 4.634 2.928 0 5.283-2.082 5.283-4.634Z" fill="#FFD300"/>
    <path fill-rule="evenodd" clip-rule="evenodd" d="m79.541 55.842-3.03 6.944a129.344 129.344 0 0 0-2.967 7.475l-.117-14.419h-8.65l-7.164 14.54.775-14.872-9.529 1.178 1.928 23.694h8.428s6.393-12.785 6.965-14.265l.086 14.264h8.647l14.268-24.539h-9.64ZM38.541 55.224c-2.488 0-4.351.646-5.449 1.252 1.568-4.816 1.917-9.262 1.917-9.262.067-.721.083-1.58.063-2.146l-10.044 1.21c.113 1.598-.123 4.123-1.415 9.517l-4.847 19.879c-.22.951-.77 2.758-1.211 3.424 3.03.999 6.5 1.902 12.228 1.902 3.14 0 5.618-.57 8.152-2.045 4.352-2.52 7.039-7.058 8.15-11.461 2.08-8.23-1.32-12.27-7.544-12.27Zm-2.533 12.698c-1.102 4.565-2.535 6.61-4.958 6.61-.991 0-1.818-.238-2.258-.57l2.643-10.89c.496-.429 1.378-1.19 2.81-1.19 2.148 0 2.919 1.189 1.763 6.04Z" fill="#fff"/>
  </g>
  <defs>
    <linearGradient id="a" x1="74" y1="0" x2="139.247" y2="125.364" gradientUnits="userSpaceOnUse">
      <stop stop-color="#313446"/>
      <stop offset="1" stop-color="#070B1F"/>
    </linearGradient>
    <clipPath id="b">
      <path fill="#fff" d="M17 44h112v37H17z"/>
    </clipPath>
  </defs>
</svg>
