<svg width="27" height="21" fill="none" xmlns="http://www.w3.org/2000/svg">
  <path fill-rule="evenodd" clip-rule="evenodd" d="M7.867 17.85v2.113h-.462v-.257c-.147.19-.369.31-.671.31-.596 0-1.063-.464-1.063-1.11 0-.645.467-1.11 1.063-1.11.302 0 .524.12.671.31v-.257h.462Zm-1.076.38c-.4 0-.645.305-.645.676 0 .372.245.677.645.677.382 0 .64-.292.64-.677 0-.384-.258-.676-.64-.676Zm16.69.676c0-.371.245-.676.645-.676.383 0 .64.292.64.676 0 .385-.257.677-.64.677-.4 0-.644-.305-.644-.677Zm1.722-1.905V19.963h-.463v-.257c-.146.19-.369.31-.671.31-.596 0-1.063-.464-1.063-1.11 0-.645.467-1.11 1.063-1.11.302 0 .524.12.671.31v-1.105h.463Zm-11.6 1.207c.297 0 .489.186.537.513h-1.102c.05-.306.235-.513.565-.513Zm-1.05.698c0-.659.436-1.11 1.059-1.11.595 0 1.004.451 1.009 1.11 0 .062-.005.12-.01.177h-1.577c.066.38.338.518.635.518.213 0 .44-.08.619-.222l.226.341c-.258.217-.551.296-.871.296-.636 0-1.09-.438-1.09-1.11Zm6.638 0c0-.371.245-.676.645-.676.382 0 .64.292.64.676 0 .385-.258.677-.64.677-.4 0-.645-.305-.645-.677Zm1.72-1.056v2.113h-.461v-.257c-.147.19-.37.31-.671.31-.596 0-1.064-.464-1.064-1.11 0-.645.468-1.11 1.064-1.11.302 0 .524.12.67.31v-.257h.463Zm-4.33 1.056c0 .642.45 1.11 1.134 1.11.32 0 .534-.07.765-.252l-.222-.371a.937.937 0 0 1-.556.19c-.37-.005-.64-.27-.64-.677 0-.407.27-.672.64-.676.2 0 .382.066.556.19l.222-.372c-.231-.18-.445-.252-.765-.252-.684 0-1.133.469-1.133 1.11Zm5.398-.8a.628.628 0 0 1 .56-.31c.094 0 .227.018.33.058l-.143.433a.752.752 0 0 0-.29-.053c-.302 0-.453.194-.453.544v1.185h-.462v-2.114h.458v.257Zm-11.827-.088c-.222-.146-.528-.222-.866-.222-.539 0-.885.257-.885.677 0 .345.258.557.733.623l.218.031c.254.036.373.102.373.222 0 .163-.169.256-.484.256-.32 0-.551-.102-.707-.221l-.218.358c.254.185.574.274.92.274.614 0 .97-.287.97-.69 0-.371-.28-.566-.743-.632l-.217-.031c-.2-.026-.36-.066-.36-.208 0-.154.15-.247.404-.247.271 0 .534.102.662.181l.2-.371Zm5.403.088a.627.627 0 0 1 .56-.31c.093 0 .227.018.329.058l-.143.433a.752.752 0 0 0-.289-.053c-.302 0-.453.194-.453.544v1.185h-.462v-2.114h.458v.257Zm-3.384-.257h-.756v-.64h-.467v.64h-.43v.42h.43v.965c0 .49.192.782.738.782.2 0 .432-.062.578-.163l-.133-.394a.859.859 0 0 1-.41.12c-.23 0-.306-.142-.306-.354v-.955h.756v-.42Zm-6.909.788v1.326h-.467v-1.176c0-.358-.151-.557-.467-.557-.307 0-.52.194-.52.561v1.172h-.467v-1.176c0-.358-.155-.557-.462-.557-.316 0-.52.194-.52.561v1.172h-.467v-2.114h.462v.261a.704.704 0 0 1 .623-.314c.324 0 .555.142.702.376.196-.296.476-.38.747-.376.516.005.836.341.836.84Z" fill="#231F20"/>
  <path d="M17.003 14.258H9.999V1.742h7.004v12.516Z" fill="#FF5F00"/>
  <path d="M10.444 8c0-2.539 1.195-4.8 3.056-6.258A7.997 7.997 0 0 0 8.554.04C4.134.04.551 3.604.551 8c0 4.397 3.583 7.96 8.003 7.96A7.997 7.997 0 0 0 13.5 14.26 7.931 7.931 0 0 1 10.444 8Z" fill="#EB001B"/>
  <path d="M26.45 8c0 4.397-3.583 7.96-8.003 7.96A8 8 0 0 1 13.5 14.26 7.93 7.93 0 0 0 16.558 8 7.93 7.93 0 0 0 13.5 1.742 8 8 0 0 1 18.447.04c4.42 0 8.004 3.564 8.004 7.96Z" fill="#F79E1B"/>
</svg>
