<svg width="26" height="18" fill="none" xmlns="http://www.w3.org/2000/svg">
  <rect x="1.393" y=".742" width="24.042" height="16.357" rx="3.5" fill="#006FCF" stroke="#F3F3F3"/>
  <path fill-rule="evenodd" clip-rule="evenodd" d="M6.015 12.78V9.207h4.025l.432.529.446-.53H25.53v3.327s-.382.243-.824.247h-8.09l-.488-.563v.563h-1.595v-.962s-.218.135-.69.135H13.3v.827h-2.416l-.431-.54-.438.54h-4Zm-4.69-6.266.905-1.99h1.566L4.31 5.64V4.525h1.948l.306.805.296-.805h8.74v.404s.46-.404 1.215-.404l2.836.009.506 1.1v-1.11h1.629l.448.632v-.631h1.645v3.573h-1.645l-.43-.634v.634h-2.393l-.241-.563h-.644l-.236.563h-1.624c-.65 0-1.065-.397-1.065-.397v.397h-2.448l-.486-.563v.563H3.564l-.24-.563h-.642l-.239.563H1.324V6.514Zm.004 1.127 1.222-2.676h.926l1.22 2.676h-.813l-.224-.536H2.35l-.226.536H1.33Zm2.073-1.117-.4-.936-.4.936h.8Zm1.38 1.116V4.965l1.13.004.657 1.725.642-1.73h1.12V7.64h-.71V5.67L6.87 7.64h-.623L5.491 5.67V7.64h-.71Zm4.036 0V4.965h2.317v.598h-1.6v.458h1.562v.563H9.535v.475h1.6v.581H8.818Zm2.728 0V4.966h1.58c.524 0 .993.305.993.868 0 .481-.396.791-.78.822l.935.986h-.868l-.851-.95h-.3v.95h-.71Zm1.522-2.076h-.812v.563h.822c.143 0 .326-.104.326-.282 0-.138-.142-.281-.336-.281Zm2.066 2.076h-.725V4.965h.725V7.64Zm1.719 0h-.157c-.757 0-1.217-.562-1.217-1.327 0-.783.455-1.348 1.411-1.348h.785v.633h-.814c-.388 0-.662.286-.662.722 0 .518.314.736.766.736h.187l-.3.584Zm.323 0 1.222-2.675h.926l1.22 2.676h-.812l-.224-.536h-1.31l-.226.536h-.796Zm2.074-1.116-.4-.936-.4.936h.8Zm1.378 1.116V4.965h.902l1.153 1.68v-1.68h.71V7.64h-.873l-1.182-1.725V7.64h-.71ZM6.5 12.322V9.647h2.317v.598h-1.6v.458H8.78v.563H7.218v.475h1.6v.581H6.5Zm11.353 0V9.647h2.318v.598h-1.6v.458h1.555v.563h-1.555v.475h1.6v.581h-2.318Zm-8.946 0 1.128-1.321L8.88 9.647h.894l.688.837.69-.837h.86l-1.14 1.337 1.13 1.338h-.894l-.668-.824-.652.824h-.881Zm3.18 0V9.648h1.568c.644 0 1.02.39 1.02.9 0 .615-.48.93-1.112.93h-.747v.845h-.73Zm1.516-2.07h-.787v.616h.784c.208 0 .353-.13.353-.308 0-.19-.146-.308-.35-.308Zm1.38 2.07V9.647h1.58c.524 0 .993.305.993.868 0 .48-.395.79-.779.821l.934.986h-.867l-.852-.95h-.299v.95h-.71Zm1.522-2.077h-.812v.563h.822c.143 0 .326-.104.326-.281 0-.138-.141-.282-.336-.282Zm3.994 2.077v-.58h1.422c.21 0 .3-.108.3-.225 0-.113-.09-.226-.3-.226h-.643c-.558 0-.869-.32-.869-.802 0-.429.285-.842 1.114-.842h1.383l-.299.602h-1.196c-.228 0-.299.113-.299.22 0 .112.087.234.262.234h.673c.622 0 .892.332.892.768 0 .468-.301.851-.926.851H20.5Zm2.503 0v-.58h1.42c.21 0 .302-.108.302-.225 0-.113-.09-.226-.301-.226h-.642c-.559 0-.87-.32-.87-.802 0-.429.285-.842 1.115-.842h1.382l-.299.602h-1.196c-.228 0-.299.113-.299.22 0 .112.087.234.262.234h.673c.622 0 .892.332.892.768 0 .468-.3.851-.926.851h-1.513Z" fill="#fff"/>
</svg>
