<svg width="35" height="6" fill="none" xmlns="http://www.w3.org/2000/svg">
  <path fill-rule="evenodd" clip-rule="evenodd" d="M31.731.21c1.22 0 1.89.565 1.89 1.632.061.815-.488 1.505-1.22 1.63l1.647 2.322h-1.28l-1.402-2.259h-.122v2.259h-1.037V.21h1.524Zm-.487 2.573h.305c.67 0 .975-.314.975-.879 0-.501-.305-.815-.976-.815h-.304v1.694ZM26.61 5.794h2.926v-.941h-1.89V3.347h1.829v-.94h-1.829V1.151h1.89V.21H26.61v5.584Zm-3.048-1.82L22.16.21h-1.098l2.256 5.71h.549L26.123.21h-1.097l-1.463 3.765Zm-12.375-.94c0 1.568 1.22 2.885 2.743 2.885.488 0 .915-.125 1.342-.313V4.35c-.305.376-.732.627-1.22.627-.975 0-1.767-.752-1.767-1.756v-.126c-.061-1.003.731-1.882 1.706-1.945.488 0 .976.251 1.28.628V.524c-.365-.25-.853-.314-1.28-.314-1.585-.125-2.804 1.192-2.804 2.824Zm-1.89-.69c-.609-.251-.792-.377-.792-.69.061-.377.366-.69.732-.628.304 0 .61.188.853.44l.549-.754C10.213.336 9.664.085 9.116.085 8.262.022 7.53.712 7.47 1.591v.062c0 .753.305 1.192 1.28 1.506.244.063.488.188.731.314a.663.663 0 0 1 .305.564c0 .44-.365.816-.731.816h-.061c-.488 0-.915-.314-1.097-.753l-.671.69c.366.69 1.097 1.067 1.829 1.067.975.062 1.768-.69 1.829-1.694v-.188c-.061-.753-.366-1.13-1.585-1.631Zm-3.535 3.45h1.036V.21H5.763v5.584ZM.947.21h1.829c1.463.063 2.621 1.318 2.56 2.824 0 .815-.365 1.568-.975 2.133-.549.439-1.22.69-1.89.627H.947V.21Zm1.341 4.643c.488.063 1.037-.126 1.402-.44.366-.376.549-.878.549-1.442 0-.502-.183-1.004-.549-1.38-.365-.314-.914-.502-1.402-.44h-.304v3.702h.304Z" fill="#151F25"/>
  <path fill-rule="evenodd" clip-rule="evenodd" d="M18.381.081c-1.523 0-2.804 1.255-2.804 2.886 0 1.568 1.22 2.886 2.804 2.948 1.585.063 2.805-1.254 2.866-2.885C21.186 1.399 19.966.08 18.38.08Z" fill="#FD6020"/>
</svg>
